<svg viewBox="0 0 448.00147 448" width="448pt" xmlns="http://www.w3.org/2000/svg"><path d="m104 0v128h144c2.121094.015625 4.15625.847656 5.679688 2.320312l32 32c3.121093 3.144532 3.121093 8.214844 0 11.359376l-32 32c-1.523438 1.476562-3.558594 2.304687-5.679688 2.320312h-144v160h272c4.417969 0 8 3.582031 8 8v16c-.015625 1.898438.089844 3.796875.320312 5.679688v.402343c2.90625 26.125 23.550782 46.734375 49.679688 49.597657h.320312c1.40625.160156 2.824219.242187 4.238282.242187.722656 0 1.363281.078125 2.082031.078125 4.199219-.269531 7.441406-3.792969 7.359375-8v-440zm88 32h160v16h-160zm-24 48v-16h208v16zm-48 152h48v16h-48zm32 48h-32v-16h32zm264 40c0 4.417969-3.582031 8-8 8h-240c-3.238281.011719-6.15625-1.953125-7.359375-4.960938-1.253906-2.976562-.589844-6.417968 1.679687-8.71875l240-240c2.300782-2.269531 5.742188-2.933593 8.71875-1.679687 3.007813 1.203125 4.972657 4.121094 4.960938 7.359375zm0 0"/><path d="m208 296h16v16h16v-16h16v16h16v-16h16v16h16v-16h16v16h16v-16h16v16h16v-16h16v-16h16v-16h-16v-16h16v-16h-16v-16h16v-16h-16v-16h16v-16h-16v-16h16v-16h-16v-16h16v-20.6875l-212.6875 212.6875h20.6875zm70.222656-29.65625 76.121094-76.117188c2.289062-2.289062 5.730469-2.972656 8.71875-1.734374 2.988281 1.238281 4.9375 4.152343 4.9375 7.386718v76.121094c0 4.417969-3.582031 8-8 8h-76.121094c-3.234375 0-6.148437-1.949219-7.386718-4.9375-1.238282-2.988281-.554688-6.429688 1.730468-8.71875zm0 0"/><path d="m352 215.191406-48.808594 48.808594h48.808594zm0 0"/><path d="m384 296h16v16h-16zm0 0"/><path d="m245.9375 145.25-5.691406 22.75 5.691406 22.753906 22.75-22.753906zm0 0"/><path d="m24 192h8v-48h-8c-13.253906 0-24 10.746094-24 24s10.746094 24 24 24zm0 0"/><path d="m88 448h306.726562c-1.84375-1.503906-3.628906-3.101562-5.359374-4.800781-1.984376-1.976563-3.851563-4.070313-5.597657-6.261719l-.257812-.34375c-1.503907-1.902344-2.910157-3.878906-4.214844-5.921875-.160156-.246094-.304687-.511719-.464844-.800781-1.199219-1.917969-2.300781-3.890625-3.304687-5.910156-.191406-.382813-.367188-.800782-.558594-1.160157-.90625-1.910156-1.730469-3.847656-2.457031-5.832031-.199219-.535156-.390625-1.0625-.574219-1.601562-.640625-1.871094-1.195312-3.765626-1.679688-5.695313-.167968-.664063-.355468-1.320313-.496093-1.984375-.425781-1.894531-.746094-3.824219-1.007813-5.757812-.097656-.6875-.234375-1.359376-.304687-2.058594-.289063-2.613282-.441407-5.242188-.449219-7.871094v-8h-336v8c.035156 30.914062 25.085938 55.964844 56 56zm0 0"/><path d="m225.761719 160 4-16h-181.761719v48h181.761719l-4-16h-161.761719v-16zm0 0"/></svg>
