<svg class="wiggle" id="bold" enable-background="new 0 0 24 24" height="512" viewBox="0 0 24 24" width="512" xmlns="http://www.w3.org/2000/svg"><path d="m22 10.45v7.55h-20v-12h9.78c.07-.36.23-.7.46-1-.23-.3-.39-.64-.46-1h-10.03c-.96 0-1.75.79-1.75 1.75v12.5c0 .96.79 1.75 1.75 1.75h8.25v2h-2c-.552 0-1 .448-1 1s.448 1 1 1h8c.553 0 1-.448 1-1s-.447-1-1-1h-2v-2h8.25c.96 0 1.75-.79 1.75-1.75v-8.81c-.48.64-1.22 1.01-2 1.01z"/><path d="m13.471 10.047c-.686-1.216-1.975-2.047-3.471-2.047-1.875 0-3.437 1.296-3.87 3.037-1.204.18-2.13 1.209-2.13 2.463 0 1.381 1.119 2.5 2.5 2.5h6.5c1.657 0 3-1.343 3-3 0-1.496-1.097-2.725-2.529-2.953z"/><path d="m22.203 5.469c.019-.155.047-.308.047-.469s-.028-.314-.047-.469l.901-.682c.201-.152.257-.43.131-.649l-.809-1.4c-.126-.218-.395-.309-.627-.211l-1.037.437c-.253-.193-.522-.363-.819-.487l-.138-1.101c-.032-.25-.244-.438-.496-.438h-1.617c-.252 0-.465.188-.496.438l-.138 1.101c-.297.124-.567.295-.819.487l-1.037-.437c-.233-.098-.502-.008-.628.211l-.808 1.4c-.126.218-.07.496.131.649l.901.682c-.02.155-.048.308-.048.469s.028.314.047.469l-.901.682c-.201.152-.257.43-.131.649l.809 1.4c.126.218.395.309.627.211l1.037-.438c.253.193.522.363.819.487l.138 1.101c.032.251.244.439.496.439h1.617c.252 0 .465-.188.496-.438l.138-1.101c.297-.124.567-.295.819-.487l1.037.437c.233.098.502.008.628-.211l.808-1.4c.126-.218.07-.496-.131-.649zm-3.703 1.531c-1.105 0-2-.895-2-2s.895-2 2-2 2 .895 2 2-.895 2-2 2z"/></svg>
